<svg width="20" height="20" viewBox="0 0 20 20" fill="none" xmlns="http://www.w3.org/2000/svg">
<path d="M16.6667 10C16.6667 13.6819 13.6819 16.6667 10 16.6667V18.3333C14.6024 18.3333 18.3333 14.6024 18.3333 10H16.6667ZM10 16.6667C6.3181 16.6667 3.33333 13.6819 3.33333 10H1.66667C1.66667 14.6024 5.39763 18.3333 10 18.3333V16.6667ZM3.33333 10C3.33333 6.3181 6.3181 3.33333 10 3.33333V1.66667C5.39763 1.66667 1.66667 5.39763 1.66667 10H3.33333ZM10 3.33333C13.6819 3.33333 16.6667 6.3181 16.6667 10H18.3333C18.3333 5.39763 14.6024 1.66667 10 1.66667V3.33333Z" fill="#01C968"/>
<path d="M13.0893 8.92259C13.4147 8.59715 13.4147 8.06952 13.0893 7.74408C12.7638 7.41864 12.2362 7.41864 11.9107 7.74408L13.0893 8.92259ZM9.16667 11.6667L8.57741 12.2559C8.90285 12.5814 9.43049 12.5814 9.75592 12.2559L9.16667 11.6667ZM8.08926 9.41075C7.76382 9.08531 7.23618 9.08531 6.91074 9.41075C6.58531 9.73618 6.58531 10.2638 6.91074 10.5893L8.08926 9.41075ZM11.9107 7.74408L8.57741 11.0774L9.75592 12.2559L13.0893 8.92259L11.9107 7.74408ZM9.75592 11.0774L8.08926 9.41075L6.91074 10.5893L8.57741 12.2559L9.75592 11.0774Z" fill="#01C968"/>
</svg>
