<svg width="20" height="20" viewBox="0 0 20 20" fill="none" xmlns="http://www.w3.org/2000/svg">
<path d="M16.6667 10C16.6667 13.6819 13.6819 16.6667 10 16.6667V18.3333C14.6024 18.3333 18.3333 14.6024 18.3333 10H16.6667ZM10 16.6667C6.3181 16.6667 3.33333 13.6819 3.33333 10H1.66667C1.66667 14.6024 5.39763 18.3333 10 18.3333V16.6667ZM3.33333 10C3.33333 6.3181 6.3181 3.33333 10 3.33333V1.66667C5.39763 1.66667 1.66667 5.39763 1.66667 10H3.33333ZM10 3.33333C13.6819 3.33333 16.6667 6.3181 16.6667 10H18.3333C18.3333 5.39763 14.6024 1.66667 10 1.66667V3.33333Z" fill="#6D4BFF"/>
<path d="M10.8333 5.83334C10.8333 5.37311 10.4602 5.00001 10 5.00001C9.53976 5.00001 9.16667 5.37311 9.16667 5.83334H10.8333ZM10 10H9.16667C9.16667 10.4602 9.53976 10.8333 10 10.8333V10ZM14.1667 10.8333C14.6269 10.8333 15 10.4602 15 10C15 9.53977 14.6269 9.16668 14.1667 9.16668V10.8333ZM9.16667 5.83334V10H10.8333V5.83334H9.16667ZM10 10.8333H14.1667V9.16668H10V10.8333Z" fill="#6D4BFF"/>
</svg>
