<svg width="24" height="24" viewBox="0 0 24 24" fill="none" xmlns="http://www.w3.org/2000/svg">
<g opacity="0.5">
<path d="M15.2929 16.7071C15.6834 17.0976 16.3166 17.0976 16.7071 16.7071C17.0976 16.3166 17.0976 15.6834 16.7071 15.2929L15.2929 16.7071ZM8.70711 7.29289C8.31658 6.90237 7.68342 6.90237 7.29289 7.29289C6.90237 7.68342 6.90237 8.31658 7.29289 8.70711L8.70711 7.29289ZM16.7071 15.2929L8.70711 7.29289L7.29289 8.70711L15.2929 16.7071L16.7071 15.2929Z" fill="#091229"/>
<path d="M16.7071 8.70711C17.0977 8.31658 17.0977 7.68342 16.7071 7.29289C16.3166 6.90237 15.6834 6.90237 15.2929 7.29289L16.7071 8.70711ZM7.29289 15.2929C6.90237 15.6834 6.90237 16.3166 7.29289 16.7071C7.68342 17.0977 8.31658 17.0977 8.70711 16.7071L7.29289 15.2929ZM15.2929 7.29289L7.29289 15.2929L8.70711 16.7071L16.7071 8.70711L15.2929 7.29289Z" fill="#091229"/>
</g>
</svg>
