<svg width="24" height="24" viewBox="0 0 24 24" fill="none" xmlns="http://www.w3.org/2000/svg">
<g opacity="0.3">
<path d="M19.1397 8.8356L18.1533 9L18.1533 9L19.1397 8.8356ZM20.8064 18.8356L19.82 19L19.82 19L20.8064 18.8356ZM3.19452 18.8356L4.18091 19L4.18091 19L3.19452 18.8356ZM4.86118 8.8356L3.87479 8.6712L3.87479 8.6712L4.86118 8.8356ZM5.84758 9H18.1533V7H5.84758V9ZM18.1533 9L19.82 19L21.7928 18.6712L20.1261 8.6712L18.1533 9ZM19.82 19H4.18091V21H19.82V19ZM4.18091 19L5.84758 9L3.87479 8.6712L2.20812 18.6712L4.18091 19ZM4.18091 19L4.18091 19L2.20812 18.6712C2.00495 19.8903 2.94503 21 4.18091 21V19ZM19.82 19L19.82 19V21C21.0559 21 21.996 19.8903 21.7928 18.6712L19.82 19ZM18.1533 9L18.1533 9L20.1261 8.6712C19.9654 7.70683 19.131 7 18.1533 7V9ZM5.84758 7C4.8699 7 4.03552 7.70682 3.87479 8.6712L5.84758 9L5.84758 9V7Z" fill="#091229"/>
<path d="M7 8C7 8.55228 7.44772 9 8 9C8.55228 9 9 8.55228 9 8H7ZM15 8C15 8.55228 15.4477 9 16 9C16.5523 9 17 8.55228 17 8H15ZM9 8C9 6.34315 10.3431 5 12 5V3C9.23858 3 7 5.23858 7 8H9ZM12 5C13.6569 5 15 6.34315 15 8H17C17 5.23858 14.7614 3 12 3V5Z" fill="#091229"/>
</g>
</svg>
