<svg width="160" height="36" viewBox="0 0 160 36" fill="none" xmlns="http://www.w3.org/2000/svg">
<path d="M46.4928 0.77652H19.9708L0 35.2235H26.6277L46.4928 0.77652Z" fill="url(#paint0_linear_24_3)"/>
<path d="M7.62939e-05 0.77652H26.5221L46.4929 35.2235H19.8652L7.62939e-05 0.77652Z" fill="#2D62F6" fill-opacity="0.35"/>
<path d="M60.4129 9.40126L62.5481 13.4362L64.6833 9.40126H71.4187L66.4888 17.1728L71.8583 25.7765H65.013L62.4853 21.1293L59.9262 25.7765H53.2379L58.6073 17.1728L53.6147 9.40126H60.4129ZM72.7061 17.5967C72.7061 16.4035 72.9049 15.2784 73.3027 14.2212C73.7004 13.1536 74.2761 12.2273 75.0297 11.4423C75.7833 10.6468 76.7044 10.0188 77.7929 9.55826C78.8815 9.08726 80.1165 8.85176 81.4982 8.85176C82.4611 8.85176 83.3194 8.99306 84.073 9.27566C84.8371 9.5478 85.5017 9.8775 86.0669 10.2648L86.2553 9.40126H91.1381V25.7765H86.2553L86.0669 24.8973C85.5017 25.295 84.8318 25.63 84.0573 25.9021C83.2932 26.1847 82.4349 26.326 81.4825 26.326C80.1113 26.326 78.8815 26.0958 77.7929 25.6352C76.7148 25.1747 75.799 24.5519 75.0454 23.7669C74.2918 22.9714 73.7109 22.0451 73.3027 20.988C72.9049 19.9204 72.7061 18.79 72.7061 17.5967ZM78.468 17.581C78.468 18.1881 78.5622 18.7376 78.7506 19.2296C78.939 19.711 79.1955 20.1245 79.5199 20.4699C79.8549 20.8153 80.2369 21.0822 80.6661 21.2706C81.1057 21.4485 81.5767 21.5375 82.0791 21.5375C82.5815 21.5375 83.0472 21.4485 83.4764 21.2706C83.9055 21.0822 84.2823 20.8205 84.6068 20.4856C84.9313 20.1402 85.1825 19.7267 85.3604 19.2453C85.5488 18.7533 85.643 18.1986 85.643 17.581C85.643 16.9844 85.5488 16.4454 85.3604 15.9639C85.172 15.4825 84.9156 15.0742 84.5911 14.7393C84.2666 14.3939 83.8846 14.1322 83.445 13.9543C83.0158 13.7659 82.5501 13.6717 82.0477 13.6717C81.5348 13.6717 81.0586 13.7659 80.619 13.9543C80.1898 14.1322 79.813 14.3887 79.4885 14.7236C79.1745 15.0585 78.9233 15.472 78.7349 15.9639C78.557 16.4454 78.468 16.9844 78.468 17.581ZM112.883 25.7765H107.105V17.1571C107.105 16.4768 107.037 15.9168 106.901 15.4772C106.775 15.0271 106.597 14.6713 106.367 14.4096C106.147 14.1375 105.886 13.9491 105.582 13.8444C105.279 13.7293 104.959 13.6717 104.624 13.6717C104.08 13.6717 103.599 13.7764 103.18 13.9857C102.772 14.1846 102.426 14.4672 102.144 14.8335C101.872 15.1894 101.662 15.6133 101.516 16.1052C101.38 16.5972 101.312 17.131 101.312 17.7066V25.7765H95.5655V9.40126H100.166L100.464 10.3747C100.799 10.1758 101.165 9.98217 101.563 9.79376C101.961 9.60536 102.374 9.44313 102.803 9.30706C103.232 9.17099 103.672 9.06109 104.122 8.97736C104.572 8.89362 105.022 8.85176 105.472 8.85176C106.791 8.85176 107.916 9.04539 108.848 9.43266C109.79 9.81993 110.559 10.3694 111.156 11.0812C111.752 11.7929 112.187 12.6512 112.459 13.656C112.741 14.6608 112.883 15.786 112.883 17.0315V25.7765ZM116.635 9.40126H122.428V25.7765H116.635V9.40126ZM116.227 5.14652C116.227 4.75925 116.305 4.39291 116.462 4.04751C116.619 3.69164 116.844 3.38287 117.138 3.1212C117.431 2.85953 117.781 2.65543 118.189 2.50889C118.608 2.35189 119.069 2.27339 119.571 2.27339C120.084 2.27339 120.544 2.35189 120.953 2.50889C121.371 2.65543 121.727 2.85953 122.02 3.1212C122.313 3.38287 122.538 3.69164 122.695 4.04751C122.852 4.39291 122.931 4.75925 122.931 5.14652C122.931 5.54426 122.852 5.92106 122.695 6.27693C122.538 6.62233 122.313 6.92587 122.02 7.18754C121.727 7.44921 121.371 7.65331 120.953 7.79985C120.534 7.94638 120.068 8.01965 119.555 8.01965C119.053 8.01965 118.598 7.94638 118.189 7.79985C117.781 7.64284 117.431 7.43351 117.138 7.17184C116.855 6.91017 116.63 6.60663 116.462 6.26123C116.305 5.91583 116.227 5.54426 116.227 5.14652ZM129.635 4.97382L133.748 4.94242V9.40126H138.082V14.1898H133.733V19.2453C133.733 19.6535 133.774 19.9884 133.858 20.2501C133.952 20.5117 134.083 20.7211 134.251 20.8781C134.418 21.0246 134.612 21.1293 134.832 21.1921C135.062 21.2444 135.313 21.2706 135.585 21.2706H138.27L138.223 25.8393H135.036C134.397 25.8393 133.78 25.8132 133.183 25.7608C132.586 25.698 132.026 25.5829 131.503 25.4154C130.98 25.2479 130.504 25.0124 130.074 24.7089C129.645 24.4054 129.274 24.0129 128.96 23.5314C128.656 23.0499 128.415 22.4638 128.238 21.773C128.07 21.0822 127.986 20.2605 127.986 19.3081V14.1898H125.506V9.95077L127.845 8.82036L129.635 4.97382ZM158.57 9.40126L149.056 31.4129H142.839L146.104 24.5676L139.636 9.41696H145.994L148.789 16.9216L149.119 18.0677L152.369 9.43266L158.57 9.40126Z" fill="#091229"/>
<defs>
<linearGradient id="paint0_linear_24_3" x1="46.7515" y1="0.776519" x2="3.7828e-06" y2="34.8662" gradientUnits="userSpaceOnUse">
<stop stop-color="#2D62F6"/>
<stop offset="1" stop-color="#F62DE2"/>
</linearGradient>
</defs>
</svg>
