<svg width="19" height="20" viewBox="0 0 19 20" fill="none" xmlns="http://www.w3.org/2000/svg">
<path d="M9.50008 9.20832C10.3745 9.20832 11.0834 8.49944 11.0834 7.62499C11.0834 6.75054 10.3745 6.04166 9.50008 6.04166C8.62563 6.04166 7.91675 6.75054 7.91675 7.62499C7.91675 8.49944 8.62563 9.20832 9.50008 9.20832Z" stroke="white" stroke-width="1.58333" stroke-linecap="round" stroke-linejoin="round"/>
<path d="M9.49992 17.125C9.49992 17.125 15.0416 13.2885 15.0416 8.35577C15.0416 6.90218 14.4577 5.50812 13.4185 4.48028C12.3792 3.45244 10.9697 2.875 9.49992 2.875C8.03018 2.875 6.62063 3.45244 5.58137 4.48028C4.5421 5.50812 3.95825 6.90218 3.95825 8.35577C3.95825 13.2885 9.49992 17.125 9.49992 17.125Z" stroke="white" stroke-width="1.58333" stroke-linecap="round" stroke-linejoin="round"/>
</svg>
