<svg width="24" height="24" viewBox="0 0 24 24" fill="none" xmlns="http://www.w3.org/2000/svg">
<path d="M3 2C2.44772 2 2 2.44772 2 3C2 3.55228 2.44772 4 3 4V2ZM4.7511 3.81845L5.73448 3.63691L5.73448 3.6369L4.7511 3.81845ZM7 16L6.01662 16.1815C6.10417 16.6558 6.51773 17 7 17V16ZM5.5 5C4.94772 5 4.5 5.44772 4.5 6C4.5 6.55228 4.94772 7 5.5 7V5ZM20.7173 7.22486L21.6917 7.44972L21.6917 7.44972L20.7173 7.22486ZM18.8712 15.2249L19.8456 15.4497L19.8456 15.4497L18.8712 15.2249ZM18 20H16C16 21.1046 16.8954 22 18 22V20ZM18 20V22C19.1046 22 20 21.1046 20 20H18ZM18 20H20C20 18.8954 19.1046 18 18 18V20ZM18 18C16.8954 18 16 18.8954 16 20H18V18ZM8 20H6C6 21.1046 6.89543 22 8 22V20ZM8 20V22C9.10457 22 10 21.1046 10 20H8ZM8 20H10C10 18.8954 9.10457 18 8 18V20ZM8 18C6.89543 18 6 18.8954 6 20H8V18ZM3 4H3.76772V2H3V4ZM3.76772 4L6.01662 16.1815L7.98338 15.8185L5.73448 3.63691L3.76772 4ZM3.76772 4L3.76772 4L5.73448 3.6369C5.55937 2.6884 4.73225 2 3.76772 2V4ZM5.5 7H19.7429V5H5.5V7ZM19.7429 7L17.8968 15L19.8456 15.4497L21.6917 7.44972L19.7429 7ZM17.8968 15H7V17H17.8968V15ZM17.8968 15L17.8968 15V17C18.8281 17 19.6362 16.3572 19.8456 15.4497L17.8968 15ZM19.7429 7L19.7429 7L21.6917 7.44972C21.9809 6.19649 21.0291 5 19.7429 5V7Z" fill="#091229" fill-opacity="0.3"/>
</svg>
