<svg width="24" height="24" viewBox="0 0 24 24" fill="none" xmlns="http://www.w3.org/2000/svg">
<g opacity="0.3">
<path d="M12.4538 2.98442L13.3618 2.56558L13.3618 2.56558L12.4538 2.98442ZM14.986 8.47434L14.078 8.89318L14.078 8.89318L14.986 8.47434ZM15.3812 8.76144L15.4989 7.76839L15.4989 7.76839L15.3812 8.76144ZM21.3849 9.47327L21.5027 8.48023L21.5027 8.48023L21.3849 9.47327ZM21.6655 10.3369L22.3445 11.0711L22.3445 11.0711L21.6655 10.3369ZM17.2268 14.4417L17.9058 15.1759L17.9058 15.1759L17.2268 14.4417ZM17.0759 14.9062L18.0567 14.7113L18.0567 14.7113L17.0759 14.9062ZM18.2541 20.8361L17.2733 21.031L17.2733 21.031L18.2541 20.8361ZM17.5195 21.3698L17.0311 22.2424L17.0311 22.2424L17.5195 21.3698ZM12.244 18.4168L11.7555 19.2894L11.7555 19.2894L12.244 18.4168ZM11.7555 18.4168L12.244 19.2894L12.244 19.2894L11.7555 18.4168ZM6.48001 21.3698L6.96845 22.2424L6.96845 22.2424L6.48001 21.3698ZM5.74537 20.8361L6.7262 21.031L6.7262 21.031L5.74537 20.8361ZM6.92363 14.9062L7.90445 15.1011L7.90445 15.1011L6.92363 14.9062ZM6.77269 14.4417L7.45164 13.7075L7.45164 13.7075L6.77269 14.4417ZM2.33398 10.3369L1.65503 11.0711L1.65503 11.0711L2.33398 10.3369ZM2.61459 9.47327L2.49685 8.48023L2.49685 8.48023L2.61459 9.47327ZM8.61831 8.76144L8.50057 7.76839L8.50057 7.76839L8.61831 8.76144ZM9.01347 8.47434L8.10541 8.05549L8.10541 8.05549L9.01347 8.47434ZM11.5457 2.98442L10.6377 2.56558L10.6377 2.56558L11.5457 2.98442ZM11.5457 3.40327L14.078 8.89318L15.8941 8.05549L13.3618 2.56558L11.5457 3.40327ZM15.2634 9.75448L21.2672 10.4663L21.5027 8.48023L15.4989 7.76839L15.2634 9.75448ZM20.9866 9.6027L16.5479 13.7075L17.9058 15.1759L22.3445 11.0711L20.9866 9.6027ZM16.095 15.1011L17.2733 21.031L19.235 20.6412L18.0567 14.7113L16.095 15.1011ZM18.0079 20.4972L12.7324 17.5442L11.7555 19.2894L17.0311 22.2424L18.0079 20.4972ZM11.2671 17.5442L5.99157 20.4972L6.96845 22.2424L12.244 19.2894L11.2671 17.5442ZM6.7262 21.031L7.90445 15.1011L5.9428 14.7113L4.76455 20.6412L6.7262 21.031ZM7.45164 13.7075L3.01294 9.6027L1.65503 11.0711L6.09374 15.1759L7.45164 13.7075ZM2.73233 10.4663L8.73606 9.75448L8.50057 7.76839L2.49685 8.48023L2.73233 10.4663ZM9.92153 8.89318L12.4538 3.40327L10.6377 2.56558L8.10541 8.05549L9.92153 8.89318ZM8.73605 9.75448C9.2541 9.69306 9.70303 9.36689 9.92153 8.89318L8.10541 8.05549C8.17825 7.89759 8.32789 7.78886 8.50057 7.76839L8.73605 9.75448ZM3.01294 9.6027C3.32618 9.89239 3.15603 10.4161 2.73233 10.4663L2.49685 8.48023C1.22576 8.63094 0.715284 10.202 1.65503 11.0711L3.01294 9.6027ZM7.90445 15.1011C8.00612 14.5894 7.83465 14.0617 7.45164 13.7075L6.09374 15.1759C5.96607 15.0578 5.90891 14.8819 5.9428 14.7113L7.90445 15.1011ZM5.99157 20.4972C6.36387 20.2888 6.80935 20.6125 6.7262 21.031L4.76455 20.6412C4.51509 21.8966 5.85153 22.8676 6.96845 22.2424L5.99157 20.4972ZM12.7324 17.5442C12.2772 17.2894 11.7223 17.2894 11.2671 17.5442L12.244 19.2894C12.0922 19.3743 11.9073 19.3743 11.7555 19.2894L12.7324 17.5442ZM17.2733 21.031C17.1902 20.6125 17.6356 20.2888 18.0079 20.4972L17.0311 22.2424C18.148 22.8676 19.4844 21.8966 19.235 20.6412L17.2733 21.031ZM16.5479 13.7075C16.1649 14.0617 15.9934 14.5894 16.0951 15.1011L18.0567 14.7113C18.0906 14.8819 18.0334 15.0578 17.9058 15.1759L16.5479 13.7075ZM21.2672 10.4663C20.8435 10.4161 20.6733 9.89239 20.9866 9.6027L22.3445 11.0711C23.2842 10.202 22.7737 8.63094 21.5027 8.48023L21.2672 10.4663ZM14.078 8.89318C14.2965 9.36689 14.7454 9.69306 15.2635 9.75448L15.4989 7.76839C15.6716 7.78887 15.8213 7.89759 15.8941 8.05549L14.078 8.89318ZM13.3618 2.56558C12.8257 1.40327 11.1738 1.40327 10.6377 2.56558L12.4538 3.40327C12.2751 3.79071 11.7244 3.79071 11.5457 3.40327L13.3618 2.56558Z" fill="#091229"/>
</g>
</svg>
