<svg width="19" height="20" viewBox="0 0 19 20" fill="none" xmlns="http://www.w3.org/2000/svg">
<g clip-path="url(#clip0_21_17)">
<path d="M19 10C19 4.75329 14.7467 0.5 9.5 0.5C4.25329 0.5 0 4.75329 0 10C0 14.7417 3.47399 18.6719 8.01562 19.3846V12.7461H5.60352V10H8.01562V7.90703C8.01562 5.52609 9.43395 4.21094 11.6039 4.21094C12.643 4.21094 13.7305 4.39648 13.7305 4.39648V6.73438H12.5326C11.3525 6.73438 10.9844 7.46673 10.9844 8.21875V10H13.6191L13.1979 12.7461H10.9844V19.3846C15.526 18.6719 19 14.7417 19 10Z" fill="white"/>
</g>
<defs>
<clipPath id="clip0_21_17">
<rect width="19" height="19" fill="white" transform="translate(0 0.5)"/>
</clipPath>
</defs>
</svg>
