<svg width="31" height="31" viewBox="0 0 31 31" fill="none" xmlns="http://www.w3.org/2000/svg">
<path d="M15.5 22.5L15.1351 23.1552C15.3619 23.2816 15.6381 23.2816 15.8649 23.1552L15.5 22.5ZM15.5 12.8717L14.8097 13.165C14.9274 13.4419 15.1991 13.6217 15.5 13.6217C15.8009 13.6217 16.0726 13.4419 16.1903 13.165L15.5 12.8717ZM8 14.2293C8 16.8342 9.92023 19.0962 11.626 20.6163C12.5028 21.3976 13.3761 22.0296 14.0286 22.4657C14.3555 22.6842 14.6289 22.8547 14.8219 22.9714C14.9184 23.0298 14.995 23.0748 15.0483 23.1057C15.0749 23.1211 15.0958 23.133 15.1104 23.1413C15.1177 23.1454 15.1234 23.1487 15.1275 23.151C15.1296 23.1522 15.1313 23.1531 15.1325 23.1538C15.1332 23.1542 15.1337 23.1545 15.1341 23.1547C15.1343 23.1548 15.1346 23.1549 15.1347 23.155C15.1349 23.1551 15.1351 23.1552 15.5 22.5C15.8649 21.8448 15.8651 21.8448 15.8652 21.8449C15.8652 21.8449 15.8653 21.845 15.8653 21.845C15.8653 21.845 15.8652 21.8449 15.865 21.8448C15.8646 21.8446 15.8639 21.8442 15.8627 21.8435C15.8603 21.8422 15.8564 21.84 15.8509 21.8369C15.84 21.8306 15.8229 21.8209 15.8001 21.8077C15.7545 21.7813 15.6861 21.7411 15.598 21.6879C15.4219 21.5814 15.1679 21.423 14.8621 21.2185C14.2489 20.8087 13.4347 20.2189 12.624 19.4964C10.9548 18.009 9.5 16.1356 9.5 14.2293H8ZM16.1903 12.5783C15.3043 10.4937 13.2851 9.52844 11.4553 9.79278C10.537 9.92544 9.66222 10.3692 9.01922 11.1355C8.37416 11.9042 8 12.9519 8 14.2293H9.5C9.5 13.251 9.78209 12.5599 10.1683 12.0996C10.5565 11.6369 11.088 11.3614 11.6697 11.2774C12.8399 11.1083 14.1957 11.72 14.8097 13.165L16.1903 12.5783ZM21.5 14.2293C21.5 16.1356 20.0452 18.009 18.376 19.4964C17.5653 20.2189 16.7511 20.8087 16.1379 21.2185C15.8321 21.423 15.5781 21.5814 15.402 21.6879C15.3139 21.7411 15.2455 21.7813 15.1999 21.8077C15.1771 21.8209 15.16 21.8306 15.1491 21.8369C15.1436 21.84 15.1397 21.8422 15.1373 21.8435C15.1361 21.8442 15.1354 21.8446 15.135 21.8448C15.1348 21.8449 15.1347 21.845 15.1347 21.845C15.1347 21.845 15.1348 21.8449 15.1348 21.8449C15.1349 21.8448 15.1351 21.8448 15.5 22.5C15.8649 23.1552 15.8651 23.1551 15.8653 23.155C15.8654 23.1549 15.8657 23.1548 15.8659 23.1547C15.8663 23.1545 15.8668 23.1542 15.8675 23.1538C15.8687 23.1531 15.8704 23.1522 15.8725 23.151C15.8766 23.1487 15.8823 23.1454 15.8896 23.1413C15.9042 23.133 15.9251 23.1211 15.9517 23.1057C16.005 23.0748 16.0816 23.0298 16.1781 22.9714C16.3711 22.8547 16.6445 22.6842 16.9714 22.4657C17.6239 22.0296 18.4972 21.3976 19.374 20.6163C21.0798 19.0962 23 16.8342 23 14.2293H21.5ZM16.1903 13.165C16.8043 11.72 18.1601 11.1083 19.3303 11.2774C19.912 11.3614 20.4435 11.6369 20.8317 12.0996C21.2179 12.5599 21.5 13.251 21.5 14.2293H23C23 12.9519 22.6258 11.9042 21.9808 11.1355C21.3378 10.3692 20.463 9.92544 19.5447 9.79278C17.7149 9.52844 15.6957 10.4937 14.8097 12.5783L16.1903 13.165Z" fill="#6D4BFF"/>
</svg>
