<svg width="19" height="20" viewBox="0 0 19 20" fill="none" xmlns="http://www.w3.org/2000/svg">
<g clip-path="url(#clip0_21_28)">
<path d="M9.5 2.21074C12.0383 2.21074 12.3389 2.22187 13.3371 2.26641C14.2648 2.30723 14.7658 2.46309 15.0998 2.59297C15.5414 2.76367 15.8605 2.97148 16.1908 3.30176C16.5248 3.63574 16.7289 3.95117 16.8996 4.39277C17.0295 4.72676 17.1853 5.23144 17.2262 6.15547C17.2707 7.15742 17.2818 7.45801 17.2818 9.99258C17.2818 12.5309 17.2707 12.8314 17.2262 13.8297C17.1853 14.7574 17.0295 15.2584 16.8996 15.5924C16.7289 16.034 16.5211 16.3531 16.1908 16.6834C15.8568 17.0174 15.5414 17.2215 15.0998 17.3922C14.7658 17.5221 14.2611 17.6779 13.3371 17.7187C12.3352 17.7633 12.0346 17.7744 9.5 17.7744C6.96172 17.7744 6.66113 17.7633 5.66289 17.7187C4.73515 17.6779 4.23418 17.5221 3.90019 17.3922C3.45859 17.2215 3.13945 17.0137 2.80918 16.6834C2.47519 16.3494 2.27109 16.034 2.10039 15.5924C1.97051 15.2584 1.81465 14.7537 1.77383 13.8297C1.7293 12.8277 1.71816 12.5271 1.71816 9.99258C1.71816 7.4543 1.7293 7.15371 1.77383 6.15547C1.81465 5.22773 1.97051 4.72676 2.10039 4.39277C2.27109 3.95117 2.4789 3.63203 2.80918 3.30176C3.14316 2.96777 3.45859 2.76367 3.90019 2.59297C4.23418 2.46309 4.73887 2.30723 5.66289 2.26641C6.66113 2.22187 6.96172 2.21074 9.5 2.21074ZM9.5 0.5C6.9209 0.5 6.59804 0.511133 5.58496 0.555664C4.57558 0.600195 3.88164 0.763476 3.28047 0.997265C2.65332 1.24219 2.12266 1.56504 1.5957 2.0957C1.06504 2.62266 0.742187 3.15332 0.497265 3.77676C0.263476 4.38164 0.100195 5.07187 0.055664 6.08125C0.0111328 7.09804 0 7.4209 0 10C0 12.5791 0.0111328 12.9019 0.055664 13.915C0.100195 14.9244 0.263476 15.6184 0.497265 16.2195C0.742187 16.8467 1.06504 17.3773 1.5957 17.9043C2.12266 18.4312 2.65332 18.7578 3.27676 18.999C3.88164 19.2328 4.57187 19.3961 5.58125 19.4406C6.59433 19.4852 6.91718 19.4963 9.49628 19.4963C12.0754 19.4963 12.3982 19.4852 13.4113 19.4406C14.4207 19.3961 15.1146 19.2328 15.7158 18.999C16.3393 18.7578 16.8699 18.4312 17.3969 17.9043C17.9238 17.3773 18.2504 16.8467 18.4916 16.2232C18.7254 15.6184 18.8887 14.9281 18.9332 13.9187C18.9777 12.9057 18.9889 12.5828 18.9889 10.0037C18.9889 7.42461 18.9777 7.10176 18.9332 6.08867C18.8887 5.0793 18.7254 4.38535 18.4916 3.78418C18.2578 3.15332 17.935 2.62266 17.4043 2.0957C16.8773 1.56875 16.3467 1.24219 15.7232 1.00098C15.1184 0.767187 14.4281 0.603906 13.4187 0.559375C12.4019 0.511133 12.0791 0.5 9.5 0.5Z" fill="white"/>
<path d="M9.5 5.12012C6.80586 5.12012 4.62012 7.30586 4.62012 10C4.62012 12.6941 6.80586 14.8799 9.5 14.8799C12.1941 14.8799 14.3799 12.6941 14.3799 10C14.3799 7.30586 12.1941 5.12012 9.5 5.12012ZM9.5 13.1654C7.75215 13.1654 6.33457 11.7479 6.33457 10C6.33457 8.25215 7.75215 6.83457 9.5 6.83457C11.2479 6.83457 12.6654 8.25215 12.6654 10C12.6654 11.7479 11.2479 13.1654 9.5 13.1654Z" fill="white"/>
<path d="M15.7121 4.9271C15.7121 5.55796 15.2 6.06636 14.5728 6.06636C13.942 6.06636 13.4336 5.55425 13.4336 4.9271C13.4336 4.29624 13.9457 3.78784 14.5728 3.78784C15.2 3.78784 15.7121 4.29995 15.7121 4.9271Z" fill="white"/>
</g>
<defs>
<clipPath id="clip0_21_28">
<rect width="19" height="19" fill="white" transform="translate(0 0.5)"/>
</clipPath>
</defs>
</svg>
