<svg width="24" height="24" viewBox="0 0 24 24" fill="none" xmlns="http://www.w3.org/2000/svg">
<path d="M11.2929 14.2929C10.9024 14.6834 10.9024 15.3166 11.2929 15.7071C11.6834 16.0976 12.3166 16.0976 12.7071 15.7071L11.2929 14.2929ZM15 12L15.7071 12.7071C15.8946 12.5196 16 12.2652 16 12C16 11.7348 15.8946 11.4804 15.7071 11.2929L15 12ZM12.7071 8.29289C12.3166 7.90237 11.6834 7.90237 11.2929 8.29289C10.9024 8.68342 10.9024 9.31658 11.2929 9.70711L12.7071 8.29289ZM4 11C3.44772 11 3 11.4477 3 12C3 12.5523 3.44772 13 4 13L4 11ZM12.7071 15.7071L15.7071 12.7071L14.2929 11.2929L11.2929 14.2929L12.7071 15.7071ZM15.7071 11.2929L12.7071 8.29289L11.2929 9.70711L14.2929 12.7071L15.7071 11.2929ZM4 13L15 13V11L4 11L4 13Z" fill="#6D4BFF"/>
<path d="M8 7C8 7.55228 8.44772 8 9 8C9.55228 8 10 7.55228 10 7H8ZM10 17C10 16.4477 9.55228 16 9 16C8.44772 16 8 16.4477 8 17H10ZM10 5H19V3H10V5ZM19 5V19H21V5H19ZM19 19H10V21H19V19ZM10 7V5H8V7H10ZM10 19V17H8V19H10ZM10 19H10H8C8 20.1046 8.89543 21 10 21V19ZM19 19V21C20.1046 21 21 20.1046 21 19H19ZM19 5H21C21 3.89543 20.1046 3 19 3V5ZM10 3C8.89543 3 8 3.89543 8 5H10V5V3Z" fill="#6D4BFF"/>
</svg>
