<svg width="24" height="24" viewBox="0 0 24 24" fill="none" xmlns="http://www.w3.org/2000/svg">
<path d="M12.7071 14.2929C13.0976 14.6834 13.0976 15.3166 12.7071 15.7071C12.3166 16.0976 11.6834 16.0976 11.2929 15.7071L12.7071 14.2929ZM9 12L8.29289 12.7071C8.10536 12.5196 8 12.2652 8 12C8 11.7348 8.10536 11.4804 8.29289 11.2929L9 12ZM11.2929 8.29289C11.6834 7.90237 12.3166 7.90237 12.7071 8.29289C13.0976 8.68342 13.0976 9.31658 12.7071 9.70711L11.2929 8.29289ZM20 11C20.5523 11 21 11.4477 21 12C21 12.5523 20.5523 13 20 13L20 11ZM11.2929 15.7071L8.29289 12.7071L9.70711 11.2929L12.7071 14.2929L11.2929 15.7071ZM8.29289 11.2929L11.2929 8.29289L12.7071 9.70711L9.70711 12.7071L8.29289 11.2929ZM20 13L9 13L9 11L20 11L20 13Z" fill="#6D4BFF"/>
<path d="M16 7C16 7.55228 15.5523 8 15 8C14.4477 8 14 7.55228 14 7H16ZM14 17C14 16.4477 14.4477 16 15 16C15.5523 16 16 16.4477 16 17H14ZM14 5H5V3H14V5ZM5 5V19H3V5H5ZM5 19H14V21H5V19ZM14 7V5H16V7H14ZM14 19V17H16V19H14ZM14 19H14H16C16 20.1046 15.1046 21 14 21V19ZM5 19V21C3.89543 21 3 20.1046 3 19H5ZM5 5H3C3 3.89543 3.89543 3 5 3V5ZM14 3C15.1046 3 16 3.89543 16 5H14V5V3Z" fill="#6D4BFF"/>
</svg>
