<svg width="19" height="20" viewBox="0 0 19 20" fill="none" xmlns="http://www.w3.org/2000/svg">
<g clip-path="url(#clip0_21_21)">
<path d="M5.97721 17.7188C13.1453 17.7188 17.067 11.7787 17.067 6.629C17.067 6.46201 17.0633 6.29131 17.0558 6.12432C17.8187 5.5726 18.4771 4.88923 19 4.10631C18.2895 4.42242 17.5351 4.62887 16.7627 4.71861C17.576 4.23108 18.185 3.4652 18.4768 2.56293C17.7116 3.01639 16.8748 3.33626 16.0023 3.50885C15.4144 2.88418 14.6371 2.47058 13.7906 2.33199C12.9441 2.19339 12.0754 2.33753 11.319 2.74211C10.5626 3.14668 9.96059 3.78917 9.60596 4.57024C9.25133 5.3513 9.16388 6.22743 9.35713 7.06318C7.80781 6.98543 6.29212 6.58296 4.90832 5.88186C3.52452 5.18075 2.30351 4.19667 1.32443 2.9934C0.826816 3.85135 0.674545 4.86658 0.898566 5.83277C1.12259 6.79895 1.70609 7.64359 2.53049 8.19502C1.91158 8.17537 1.30623 8.00873 0.764453 7.70888V7.75713C0.763899 8.65748 1.07516 9.53024 1.64533 10.2271C2.2155 10.9239 3.00938 11.4017 3.89203 11.5794C3.31871 11.7363 2.71699 11.7591 2.13342 11.6462C2.38249 12.4205 2.86708 13.0977 3.51957 13.5834C4.17206 14.069 4.95989 14.3388 5.77311 14.3552C4.3925 15.4397 2.68705 16.0279 0.931445 16.0251C0.620102 16.0246 0.309066 16.0055 0 15.9679C1.78351 17.1122 3.85821 17.7199 5.97721 17.7188Z" fill="white"/>
</g>
<defs>
<clipPath id="clip0_21_21">
<rect width="19" height="19" fill="white" transform="translate(0 0.5)"/>
</clipPath>
</defs>
</svg>
